<svg
    xmlns="http://www.w3.org/2000/svg"
 	 width="500"
 	 height="500">
     <!-- Created by Peter Silk from the Noun Project -->
 <g id="fly" transform="scale(10) translate(-22,-325)">
    <path fill="#000" class="fly" d="M47.292 353.174s-9.883-1.646-11.082-8.432c-.631-3.574 1.321-5.719 3.082-6.031 1.827-.324 5.589 1.525 6.981 8.693l1.019 5.77M48.709 354.557s.228 3.187 2.151 3.642c0 0-.831 3.477-4.648 4.813-5.605 1.963-7.308-.41-7.571-1.9-.624-3.534 3.275-6.36 5.509-6.756 3.305-.585 4.559.201 4.559.201M50.901 351.043c-1.029.615-1.589 2.287-.801 4.506.829 2.332 4.63 4.92 7.363 3.027.867-.602.114-4.871-2.432-6.652-1.714-1.199-2.936-1.594-4.13-.881M59.718 346.414c-5.19.855-5.741 3.779-5.741 3.779s-.064-4.512 2.862-6.914l.69.779s-1.937 1.612-1.937 2.905c0 0 2.906-1.614 3.552-1.614"></path>
</g>
</svg>
