<svg
    xmlns="http://www.w3.org/2000/svg"
 	 width = "500"
 	 height = "500"
 >
 <g id="fly" transform="scale(4) translate(-15,-320)">
    <path fill="#000" class="fly" d="M47.292 353.174s-9.883-1.646-11.082-8.432c-.631-3.574 1.321-5.719 3.082-6.031 1.827-.324 5.589 1.525 6.981 8.693l1.019 5.77M48.709 354.557s.228 3.187 2.151 3.642c0 0-.831 3.477-4.648 4.813-5.605 1.963-7.308-.41-7.571-1.9-.624-3.534 3.275-6.36 5.509-6.756 3.305-.585 4.559.201 4.559.201M50.901 351.043c-1.029.615-1.589 2.287-.801 4.506.829 2.332 4.63 4.92 7.363 3.027.867-.602.114-4.871-2.432-6.652-1.714-1.199-2.936-1.594-4.13-.881M59.718 346.414c-5.19.855-5.741 3.779-5.741 3.779s-.064-4.512 2.862-6.914l.69.779s-1.937 1.612-1.937 2.905c0 0 2.906-1.614 3.552-1.614"></path>
</g>
<g id="pile">
    <path  style="fill:#000000;fill-opacity:1.000000;stroke:#000000;stroke-width:1.000000px;stroke-opacity:1.000000;stroke-linecap:butt;stroke-linejoin:miter;"
     d="M 72.445312,362.011719 C 53.511719,387.789062 41.015625,434.191406 72.570312,433.843750 C 104.125000,433.496094 387.972656,432.968750 412.902344,432.539062 C 437.832031,432.109375 417.738281,374.800781 395.152344,362.121094 C 372.566406,349.441406 91.378906,336.234375 72.445312,362.011719  z"  />
    <path  style="fill:#000000;fill-opacity:1.000000;stroke:#000000;stroke-width:1.000000px;stroke-opacity:1.000000;stroke-linecap:butt;stroke-linejoin:miter;"
     d="M 129.211334,330.538605 C 203.878265,331.518921 362.439117,349.655334 364.313354,332.797943 C 366.187592,315.940582 380.214233,284.324524 337.743591,280.962280 C 295.272400,277.600006 206.870728,258.058228 161.920654,271.430725 C 116.970825,284.803223 54.544388,329.558258 129.211334,330.538605  z"  />
    <path  style="fill:#000000;fill-opacity:1.000000;stroke:#000000;stroke-width:1.000000px;stroke-opacity:1.000000;stroke-linecap:butt;stroke-linejoin:miter;"
     d="M 205.970688,203.542816 C 252.068878,223.762695 318.904480,195.315857 334.378204,221.724014 C 349.851562,248.132095 354.398743,271.403442 338.272858,272.173828 C 322.146973,272.943939 261.911102,264.680908 223.833221,259.505463 C 185.755524,254.330139 159.872330,183.322906 205.970688,203.542816  z"  />
</g>
</svg>
